<svg xmlns="http://www.w3.org/2000/svg" width="282" height="120" viewBox="205 25 282 120">
  <defs>
    <clipPath id="cc">
      <rect x="215" y="30" width="105" height="105" rx="16"/>
    </clipPath>
    <clipPath id="rc">
      <rect x="382" y="30" width="105" height="105" rx="16"/>
    </clipPath>
  </defs>

  <rect x="215" y="35" width="105" height="105" rx="16" fill="#26215C"/>
  <rect x="215" y="30" width="105" height="105" rx="16" fill="#534AB7"/>
  <rect x="215" y="30" width="105" height="9" fill="#7F77DD" clip-path="url(#cc)"/>
  <rect x="215" y="39" width="105" height="7" fill="#7F77DD" fill-opacity="0.25" clip-path="url(#cc)"/>
  <text x="267" y="89" font-family="var(--font-mono, monospace)" font-size="54" fill="#EEEDFE" text-anchor="middle" dominant-baseline="central">⌘</text>

  <text x="352" y="85" font-family="var(--font-mono, monospace)" font-size="32" fill="#888" text-anchor="middle" dominant-baseline="central">+</text>

  <rect x="382" y="35" width="105" height="105" rx="16" fill="#633806"/>
  <rect x="382" y="30" width="105" height="105" rx="16" fill="#EF9F27"/>
  <rect x="382" y="30" width="105" height="9" fill="#FAC775" clip-path="url(#rc)"/>
  <rect x="382" y="39" width="105" height="7" fill="#FAC775" fill-opacity="0.25" clip-path="url(#rc)"/>
  <path transform="translate(421, 100) scale(0.05, -0.05)" fill="#412402"
    d="M52 0V442.459Q52 479.853 70.912 511.014Q89.824 542.176 121.201 561.088Q152.578 580 190.23 580H512.095V449.066H195.055Q190.082 449.066 186.508 445.492Q182.934 441.918 182.934 436.945V0Z"/>
</svg>
